# AST/ASF file generated using VICON BodyLanguage
# -----------------------------------------------
:version 1.10
:name VICON
:units
  mass 1.0
  length 0.45
  angle deg
:documentation
   .ast/.asf automatically generated from VICON data using
   VICON BodyBuilder and BodyLanguage model FoxedUp or BRILLIANT.MOD
:root
   order TX TY TZ RX RY RZ
   axis XYZ
   position 0 0 0  
   orientation 0 0 0 
:bonedata
  begin
     id 1 
     name lhipjoint
     direction 0.711131 -0.61297 0.344326 
     length 2.29162 
     axis 0 0 0  XYZ
  end
  begin
     id 2 
     name lfemur
     direction 0.34202 -0.939693 0  
     length 6.71424  
     axis 0 0 20  XYZ
    dof rx ry rz
    limits (-160.0 20.0)
           (-70.0 70.0)
           (-60.0 70.0)
  end
  begin
     id 3 
     name ltibia
     direction 0.34202 -0.939693 0   
     length 6.7087   
     axis 0 0 20   XYZ
    dof rx
    limits (-10.0 170.0)
  end
  begin
     id 4 
     name lfoot
     direction 0.0230374 -0.0632947 0.997729   
     length 1.56743   
     axis -90 7.62852e-016 20   XYZ
    dof rx rz
    limits (-45.0 90.0)
           (-70.0 20.0)
  end
  begin
     id 5 
     name ltoes
     direction 1.53585e-011 -4.21885e-011 1   
     length 0.802914   
     axis -90 7.62852e-016 20   XYZ
    dof rx
    limits (-90.0 20.0)
  end
  begin
     id 6 
     name rhipjoint
     direction -0.733192 -0.592884 0.333043   
     length 2.36925  
     axis 0 0 0  XYZ 
  end
  begin
     id 7 
     name rfemur
     direction -0.34202 -0.939693 0   
     length 6.67027   
     axis 0 0 -20   XYZ
    dof rx ry rz
    limits (-160.0 20.0)
           (-70.0 70.0)
           (-70.0 60.0)
  end
  begin
     id 8 
     name rtibia
     direction -0.34202 -0.939693 0   
     length 6.6862   
     axis 0 0 -20   XYZ
    dof rx
    limits (-10.0 170.0)
 end
 begin
     id 9 
     name rfoot
     direction -0.0949739 -0.260939 0.960672   
     length 1.67698  
     axis -90 -7.62852e-016 -20   XYZ
    dof rx rz
    limits (-45.0 90.0)
           (-20.0 70.0)
  end
  begin
     id 10 
     name rtoes
     direction -1.5353e-011 -4.21868e-011 1   
     length 0.846298   
     axis -90 -7.62852e-016 -20   XYZ
    dof rx
    limits (-90.0 20.0)
  end
  begin
     id 11 
     name lowerback
     direction -0.0206828 0.999785 -0.00109866   
     length 2.04382   
     axis 0 0 0   XYZ
    dof rx ry rz
    limits (-20.0 45.0)
           (-30.0 30.0)
           (-30.0 30.0)
  end
  begin
     id 12 
     name upperback
     direction -0.0105003 0.999727 -0.0208904   
     length 2.04538   
     axis 0 0 0   XYZ
    dof rx ry rz
    limits (-20.0 45.0)
           (-30.0 30.0)
           (-30.0 30.0)
  end
  begin
     id 13 
     name thorax
     direction -0.000416255 0.999808 -0.0196023   
     length 2.0399   
     axis 0 0 0   XYZ
    dof rx ry rz
    limits (-20.0 45.0)
           (-30.0 30.0)
           (-30.0 30.0)
  end
  begin
     id 14 
     name lowerneck
     direction 0.0627861 0.989205 0.13241   
     length 1.46207   
     axis 0 0 0   XYZ
    dof rx ry rz
    limits (-20.0 45.0)
           (-30.0 30.0)
           (-30.0 30.0)
  end
  begin
     id 15 
     name upperneck
     direction 0.00627179 0.994526 0.104303   
     length 1.41419   
     axis 0 0 0   XYZ
    dof rx ry rz
    limits (-20.0 45.0)
           (-30.0 30.0)
           (-30.0 30.0)
  end
  begin
     id 16
     name head
     direction -0.00443838 0.999688 0.0245968  
     length 1.50718  
     axis 0 0 0   XYZ
    dof rx ry rz
    limits (-20.0 45.0)
           (-30.0 30.0)
           (-30.0 30.0)
  end
  begin
     id 17 
     name lclavicle
     direction 0.758742 0.650995 -0.0227258  
     length 2.86888  
     axis 0 0 0   XYZ
    dof ry rz
    limits (-20.0 10.0)
           (0.0 20.0)
  end
  begin
     id 18 
     name lhumerus
     direction 1 -4.48962e-011 1.06664e-027   
     length 4.65776   
     axis -180 -30 -90   XYZ
    dof rx ry rz
    limits (-60.0 90.0)
           (-90.0 90.0)
           (-90.0 90.0)
  end
  begin
     id 19
     name lradius
     direction 1 -4.48968e-011 1.40404e-026   
     length 3.55539   
     axis -180 -30 -90   XYZ
    dof rx
    limits (-10.0 170.0)
  end
  begin
     id 20
     name lwrist
     direction 1 -4.48976e-011 3.32647e-026   
     length 1.77769   
     axis -2.20186e-014 90 90   XYZ
    dof ry
    limits (-180.0 0.0)
 end
  begin
     id 21 
     name lhand
     direction 1 -4.48982e-011 6.65293e-026   
     length 0.707264   
     axis -4.24514e-014 90 90   XYZ
    dof rx rz
    limits (-90.0 90.0)
           (-45.0 45.0)
  end
  begin
     id 22 
     name lfingers
     direction 1 -4.48966e-011 1.33059e-025   
     length 0.570215   
     axis -8.49028e-014 90 90   XYZ
    dof rx
    limits (0.0 90.0)
  end
  begin
     id 23
     name lthumb
     direction 0.707107 -6.3493e-011 0.707107   
     length 0.818718   
     axis -90 45 2.85299e-015   XYZ
    dof rx rz
    limits (-45.0 45.0)
           (-45.0 45.0)
  end
  begin
     id 24 
     name rclavicle
     direction -0.870343 0.482028 -0.100759   
     length 3.2251  
     axis 0 0 0   XYZ 
    dof ry rz
    limits (-10.0 20.0)
           (-20.0 0.0)
  end
  begin
     id 25 
     name rhumerus
     direction -1 -4.48974e-011 -9.45849e-028  
     length 4.71925   
     axis -180 30 90   XYZ
    dof rx ry rz
    limits (-90.0 60.0)
           (-90.0 90.0)
           (-90.0 90.0)
  end
  begin
     id 26 
     name rradius
     direction -1 -4.48965e-011 1.17607e-026   
     length 3.5699   
     axis -180 30 90   XYZ
    dof rx
    limits (-10.0 170.0)
  end
  begin
     id 27 
     name rwrist
     direction -1 -4.48968e-011 3.32647e-026   
     length 1.78495   
     axis -2.20186e-014 -90 -90   XYZ
    dof ry
    limits (-180.0 0.0)
  end
  begin
     id 28
     name rhand
     direction -1 -4.48995e-011 6.65293e-026   
     length 0.507757   
     axis -4.24514e-014 -90 -90   XYZ
    dof rx rz
    limits (-90.0 90.0)
           (-45.0 45.0)
  end
  begin
     id 29
     name rfingers
     direction -1 -4.48864e-011 1.33059e-025   
     length 0.409367   
     axis -8.49028e-014 -90 -90   XYZ
    dof rx
    limits (0.0 90.0)
  end
  begin
     id 30
     name rthumb
     direction -0.707107 -6.3494e-011 0.707107   
     length 0.587771   
     axis -90 -45 -2.85299e-015   XYZ
    dof rx rz
    limits (-45.0 45.0)
           (-45.0 45.0)
  end
:hierarchy
  begin
    root lhipjoint rhipjoint lowerback
    lhipjoint lfemur
    lfemur ltibia
    ltibia lfoot
    lfoot ltoes
    rhipjoint rfemur
    rfemur rtibia
    rtibia rfoot
    rfoot rtoes
    lowerback upperback
    upperback thorax
    thorax lowerneck lclavicle rclavicle
    lowerneck upperneck
    upperneck head
    lclavicle lhumerus
    lhumerus lradius
    lradius lwrist
    lwrist lhand lthumb
    lhand lfingers
    rclavicle rhumerus
    rhumerus rradius
    rradius rwrist
    rwrist rhand rthumb
    rhand rfingers
  end

#!OML:ASF E:\Steps\Project 1\Capture day 1\Session 2\Subject.ASF
:FULLY-SPECIFIED
:DEGREES
48
root -1.35162 16.3061 20.9041 -153.522 1.179 -175.279
lowerback -26.7046 -1.61572 -2.46128
upperback -0.229014 -1.20959 1.28901
thorax 14.8588 -0.64426 2.49087
lowerneck -3.64043 -7.46883 -1.09071
upperneck 19.1862 -9.94757 4.62859
head 6.73306 -4.10922 1.01023
rclavicle 8.34896e-015 -7.95139e-015
rhumerus -37.4177 -17.0645 -79.6634
rradius 35.1355
rwrist -3.28585
rhand -6.19682 -57.672
rfingers 7.12502
rthumb 19.6431 -86.6996
lclavicle 8.34896e-015 -7.95139e-015
lhumerus -29.5123 7.1612 80.2486
lradius 21.3774
lwrist -5.45572
lhand -22.1824 -14.4418
lfingers 7.12502
lthumb 4.2326 15.4959
rfemur -26.5674 9.19281 24.5228
rtibia 8.21301
rfoot -17.0839 -0.0784062
rtoes -18.5513
lfemur -27.8911 -8.42222 -13.6031
ltibia 11.7567
lfoot -8.5827 0.93965
ltoes -27.8959
49
root -1.34718 16.3069 20.9041 -153.694 1.53961 -175.255
lowerback -26.3472 -1.57448 -2.652
upperback -0.189916 -1.11713 1.26562
thorax 14.7038 -0.621091 2.60855
lowerneck -3.782 -7.50228 -0.828296
upperneck 19.5726 -9.95679 4.30241
head 6.85195 -4.09712 0.856335
rclavicle -9.74045e-015 1.11319e-014
rhumerus -37.5236 -17.0572 -79.6645
rradius 35.0919
rwrist -3.54592
rhand -5.97571 -57.9435
rfingers 7.12502
rthumb 19.8557 -86.9492
lclavicle -9.74045e-015 1.11319e-014
lhumerus -29.6805 7.06747 80.0665
lradius 21.3626
lwrist -5.38402
lhand -21.6591 -14.4489
lfingers 7.12502
lthumb 4.73799 15.4781
rfemur -26.6074 9.57189 24.3831
rtibia 8.57702
rfoot -17.2194 -0.14388
rtoes -18.2454
lfemur -27.7429 -8.35048 -13.5861
ltibia 11.8707
lfoot -8.75035 1.12559
ltoes -26.7141
50
root -1.35698 16.3055 20.9098 -153.681 1.79586 -175.324
lowerback -26.3883 -1.56214 -2.83229
upperback -0.0737639 -1.0573 1.25919
thorax 14.866 -0.617688 2.72773
lowerneck -3.66043 -7.58184 -0.667302
upperneck 19.5192 -10.0405 4.08209
head 6.79575 -4.14991 0.760303
rclavicle -1.98785e-016 -7.95139e-015
rhumerus -37.5816 -17.1592 -79.5471
rradius 35.274
rwrist -3.12775
rhand -6.91498 -54.7669
rfingers 7.12502
rthumb 18.9526 -83.8636
lclavicle -1.98785e-016 -7.95139e-015
lhumerus -29.695 7.24057 79.9439
lradius 21.3417
lwrist -5.50656
lhand -21.4542 -15.0233
lfingers 7.12502
lthumb 4.93583 14.8992
rfemur -26.8195 9.46025 24.2878
rtibia 8.99269
rfoot -17.3667 0.163395
rtoes -17.9219
lfemur -27.7899 -8.36999 -13.7676
ltibia 12.0193
lfoot -8.94287 1.13904
ltoes -24.4477
51
root -1.36511 16.3065 20.9206 -153.634 2.14043 -175.233
lowerback -26.3544 -1.51615 -2.86855
upperback 0.00388985 -1.00091 1.28296
thorax 14.9374 -0.603564 2.79754
lowerneck -3.51406 -7.6999 -0.506777
upperneck 19.4787 -10.178 3.875
head 6.74126 -4.22693 0.665893
rclavicle 1.15295e-014 -6.36111e-015
rhumerus -37.6236 -17.076 -79.5778
rradius 35.5161
rwrist -3.12029
rhand -5.39975 -57.2645
rfingers 7.12502
rthumb 20.4093 -86.2119
lclavicle 1.15295e-014 -6.36111e-015
lhumerus -29.7534 7.46401 79.8013
lradius 21.3014
lwrist -5.6913
lhand -21.6995 -15.2901
lfingers 7.12502
lthumb 4.69891 14.6378
rfemur -27.1915 9.76005 24.2429
rtibia 9.5444
rfoot -17.5579 0.143662
rtoes -18.214
lfemur -27.8876 -8.42694 -13.6943
ltibia 12.1799
lfoot -9.14272 1.38993
ltoes -22.3527
52
root -1.36959 16.3063 20.9361 -153.579 2.52957 -175.1
lowerback -26.2921 -1.45497 -2.90574
upperback 0.108329 -0.931046 1.32408
thorax 15.0244 -0.586717 2.89318
lowerneck -3.63914 -7.73551 -0.539901
upperneck 19.7328 -10.2165 3.82959
head 6.84539 -4.23739 0.645803
rclavicle 1.55052e-014 2.54444e-014
rhumerus -37.4157 -17.045 -79.5859
rradius 35.562
rwrist -3.09539
rhand -4.56663 -58.6541
rfingers 7.12502
rthumb 21.2098 -87.5138
lclavicle 1.55052e-014 2.54444e-014
lhumerus -29.6305 7.53943 79.77
lradius 21.1864
lwrist -5.76913
lhand -22.0405 -14.9257
lfingers 7.12502
lthumb 4.36968 15.0093
rfemur -27.6913 9.97087 24.2497
rtibia 10.2061
rfoot -17.8501 0.246373
rtoes -19.0117
lfemur -28.089 -8.37629 -13.5493
ltibia 12.448
lfoot -9.28505 1.76665
ltoes -22.3004
53
root -1.36291 16.3319 21.0003 -153.71 3.15919 -174.938
lowerback -25.2606 -1.36399 -3.20855
upperback 0.095921 -0.785581 1.40337
thorax 14.4242 -0.547184 3.20852
lowerneck -3.80173 -7.64795 -0.76257
upperneck 20.0367 -10.0981 3.97536
head 6.98883 -4.16577 0.725954
rclavicle -1.11319e-014 7.15625e-015
rhumerus -37.2281 -16.8407 -79.6438
rradius 35.4754
rwrist -3.45688
rhand -5.09104 -57.857
rfingers 7.12502
rthumb 20.7059 -86.7724
lclavicle -1.11319e-014 7.15625e-015
lhumerus -29.5492 7.46209 79.7977
lradius 21.1571
lwrist -5.4941
lhand -22.0906 -14.5068
lfingers 7.12502
lthumb 4.32126 15.4291
rfemur -28.5485 10.9781 23.9811
rtibia 11.39
rfoot -18.2048 -0.311222
rtoes -20.3262
lfemur -28.5656 -8.04877 -13.2106
ltibia 13.1599
lfoot -9.41183 2.43804
ltoes -23.0183
